<?xml version="1.0" standalone="no"?>
<!DOCTYPE svg PUBLIC "-//W3C//DTD SVG 20010904//EN"
 "http://www.w3.org/TR/2001/REC-SVG-20010904/DTD/svg10.dtd">
<svg version="1.0" xmlns="http://www.w3.org/2000/svg"
 width="500.000000pt" height="500.000000pt" viewBox="0 0 500.000000 500.000000"
 preserveAspectRatio="xMidYMid meet">
<metadata>
Created by potrace 1.14, written by Peter Selinger 2001-2017
</metadata>
<g transform="translate(0.000000,500.000000) scale(0.100000,-0.100000)"
fill="#000000" stroke="none">
<path d="M2823 4043 c14 -42 17 -72 13 -108 -6 -51 -35 -149 -42 -142 -2 2 3
38 12 80 8 43 14 85 12 95 -2 9 -13 -28 -25 -83 -12 -55 -25 -109 -29 -120 -7
-18 -6 -19 10 -6 14 12 12 3 -8 -44 -15 -32 -24 -60 -21 -63 6 -6 75 138 75
157 0 12 3 12 12 3 9 -9 9 -26 -1 -75 -16 -77 -35 -112 -26 -47 l6 45 -26 -49
c-14 -27 -38 -67 -54 -90 -43 -63 -47 -73 -21 -51 12 11 36 40 52 65 41 63 24
13 -23 -70 -22 -38 -42 -78 -44 -90 -4 -22 -64 -104 -71 -97 -3 2 5 26 16 52
30 71 60 191 66 265 4 59 2 56 -19 -45 -14 -60 -44 -159 -68 -220 l-44 -110
-8 185 c-5 102 -9 199 -10 215 -2 53 12 161 29 211 46 138 118 200 174 149 11
-10 23 -16 26 -13 8 9 -47 48 -68 48 -53 0 -121 -73 -145 -156 -25 -87 -38
-215 -36 -367 1 -86 -2 -155 -6 -152 -5 2 -12 -39 -15 -93 -11 -147 -24 -198
-71 -286 -60 -112 -142 -312 -175 -427 -15 -53 -31 -107 -35 -120 l-7 -24 26
24 c15 14 26 35 26 50 1 42 73 247 98 278 17 21 22 23 17 8 -61 -194 -86 -287
-81 -292 11 -11 18 4 46 109 62 233 68 245 140 303 86 69 161 108 129 68 -13
-16 -12 -17 3 -5 10 8 16 19 15 24 -1 6 4 13 12 16 10 3 11 0 5 -9 -6 -12 -5
-12 8 -1 31 25 137 54 306 82 174 30 214 42 243 76 31 36 31 58 0 25 -41 -44
-83 -59 -233 -81 -72 -11 -167 -31 -210 -45 -43 -14 -84 -25 -91 -25 -7 0 -38
-13 -69 -29 -32 -16 -58 -26 -58 -22 0 11 97 94 129 111 17 8 20 14 11 20 -9
6 -8 14 4 38 9 17 12 33 7 36 -5 3 -14 -8 -20 -26 -6 -18 -19 -43 -27 -56 -13
-20 -18 -22 -25 -11 -7 11 -10 9 -15 -9 -5 -15 -9 -20 -14 -12 -5 8 -10 2 -14
-14 -6 -26 -26 -37 -26 -15 0 20 110 178 167 239 37 40 77 70 121 92 61 30 74
33 162 33 67 -1 106 -6 134 -18 48 -21 60 -15 15 9 -47 24 -167 35 -237 23
-74 -14 -135 -46 -202 -106 l-54 -48 29 51 c34 57 124 164 105 124 -9 -21 -6
-19 22 10 20 21 72 53 128 78 78 36 114 46 210 59 111 15 148 14 376 -3 83 -7
154 7 154 29 0 6 10 30 21 54 15 31 20 55 16 79 -6 34 0 41 19 27 5 -5 -4 5
-21 20 -18 17 -58 36 -100 48 -38 11 -78 24 -87 30 -10 5 -18 5 -18 1 0 -5
-28 -14 -62 -20 -35 -6 -74 -14 -88 -17 -24 -6 -24 -6 -6 9 37 30 5 16 -105
-44 -60 -34 -114 -58 -120 -55 -12 8 -233 -156 -334 -247 -16 -16 -33 -28 -36
-28 -3 0 9 37 27 83 72 178 83 336 31 450 -14 31 -28 57 -30 57 -2 0 5 -26 16
-57z m27 -163 c0 -16 -4 -30 -8 -30 -5 0 -7 14 -4 30 2 17 6 30 8 30 2 0 4
-13 4 -30z m772 -10 c21 -6 52 -23 69 -37 28 -24 31 -31 26 -71 -3 -24 -9 -48
-14 -53 -5 -5 -29 -2 -58 7 -32 10 -103 18 -198 20 l-149 5 -137 -56 c-75 -30
-140 -55 -144 -55 -3 0 -23 -11 -43 -25 -59 -40 -63 -28 -8 23 96 90 342 211
489 241 58 12 124 12 167 1z m-8 -170 c68 -11 69 -11 60 -35 -7 -16 -18 -17
-133 -10 -69 4 -169 8 -223 9 -53 0 -94 4 -92 7 2 3 52 11 111 18 59 7 115 14
123 16 33 6 98 4 154 -5z m-1067 -367 c-2 -16 -4 -5 -4 22 0 28 2 40 4 28 2
-13 2 -35 0 -50z m-1 -235 c-8 -13 -20 -41 -26 -64 -12 -41 -45 -93 -53 -84
-7 7 50 130 70 152 22 25 26 23 9 -4z m-96 -133 c-7 -9 -15 -13 -18 -10 -3 2
1 11 8 20 7 9 15 13 18 10 3 -2 -1 -11 -8 -20z"/>
<path d="M2752 4015 c0 -16 2 -22 5 -12 2 9 2 23 0 30 -3 6 -5 -1 -5 -18z"/>
<path d="M2765 3917 c-4 -10 -5 -21 -1 -24 10 -10 18 4 13 24 -4 17 -4 17 -12
0z"/>
<path d="M3194 3828 c-43 -32 -49 -38 -38 -38 10 1 83 59 73 60 -4 0 -19 -10
-35 -22z"/>
<path d="M2060 3472 c-66 -45 -123 -124 -150 -207 -10 -33 -27 -80 -35 -105
-23 -62 -31 -280 -16 -406 29 -231 95 -484 171 -649 17 -38 41 -99 52 -135 11
-36 32 -94 48 -130 19 -44 31 -98 39 -165 13 -112 19 -308 10 -297 -3 4 -18
43 -34 87 -51 147 -84 206 -156 276 -102 102 -275 179 -401 179 -27 0 -48 5
-48 10 0 6 -9 2 -21 -9 -19 -18 -21 -28 -17 -123 6 -181 51 -248 366 -537 62
-57 116 -100 119 -97 8 8 -83 102 -154 159 -29 22 -50 43 -48 46 6 5 166 -117
177 -134 4 -7 33 -32 64 -56 66 -51 251 -268 301 -354 19 -33 60 -96 91 -140
32 -44 66 -97 76 -117 10 -21 28 -45 40 -55 l20 -18 -18 30 -19 30 22 -19 c43
-38 31 -6 -21 57 -52 64 -108 158 -148 251 -10 25 -18 46 -16 46 5 0 66 -89
180 -260 20 -30 30 -39 36 -30 6 9 13 5 25 -14 17 -25 19 -26 36 -10 19 17 18
18 -12 44 -29 24 -32 32 -33 81 0 100 14 182 39 224 13 22 71 84 128 137 137
127 357 406 419 533 98 197 81 342 -47 391 -72 27 -146 15 -260 -41 -101 -50
-161 -107 -218 -205 -37 -64 -92 -239 -111 -350 -18 -106 -27 -567 -13 -633
11 -53 -3 -41 -48 39 -136 243 -192 422 -225 723 -16 142 -5 179 97 341 118
186 190 272 260 309 13 6 22 15 20 20 -1 5 9 18 23 29 14 11 22 24 18 28 -4 4
-14 1 -23 -6 -9 -7 -18 -10 -21 -7 -3 3 4 10 15 16 11 7 28 25 36 41 13 26 13
30 1 30 -21 0 -68 -60 -63 -81 3 -10 -4 -26 -14 -35 -18 -16 -19 -16 -19 5 0
21 0 21 -34 4 -18 -10 -57 -46 -85 -80 -28 -35 -54 -63 -56 -63 -7 0 5 63 17
87 6 12 7 30 4 40 -7 17 -8 17 -22 -1 -8 -11 -14 -43 -15 -70 -1 -62 -5 -86
-17 -98 -12 -12 -3 143 10 159 7 9 4 11 -11 8 -43 -8 -54 -24 -78 -106 -33
-116 -45 -122 -43 -24 2 107 2 105 -16 105 -13 0 -15 -7 -9 -40 4 -22 3 -75
-1 -117 -7 -74 -8 -76 -16 -38 -4 22 -7 79 -6 126 1 113 -23 162 -34 69 -3
-24 -4 -23 -26 15 -22 36 -23 46 -17 130 9 130 49 312 105 489 68 212 83 295
78 419 -3 70 -9 112 -20 132 -9 17 -24 47 -34 68 -22 50 -68 87 -107 87 -20 0
-53 -15 -87 -38z m85 8 c3 -5 2 -10 -4 -10 -5 0 -13 5 -16 10 -3 6 -2 10 4 10
5 0 13 -4 16 -10z m-36 -7 c0 -5 -21 -25 -47 -47 -25 -21 -59 -54 -74 -73 -31
-39 -36 -37 -14 5 26 50 138 145 135 115z m114 -31 c46 -51 66 -228 41 -371
-8 -47 -39 -171 -68 -276 -96 -339 -111 -428 -104 -604 4 -85 11 -132 28 -176
24 -68 40 -154 29 -161 -12 -7 -45 105 -129 443 -54 219 -83 311 -111 358 -12
21 -21 69 -29 159 -22 241 6 366 117 513 38 50 107 113 124 113 12 0 12 -1
-16 -63 -16 -33 -29 -88 -35 -139 -48 -421 -52 -475 -47 -576 5 -91 33 -417
40 -461 1 -8 2 174 1 405 0 358 3 433 18 514 9 52 17 112 18 133 0 21 6 50 14
65 7 15 17 45 21 67 4 22 11 48 16 57 13 23 51 23 72 0z m-166 -524 c-3 -7 -5
-2 -5 12 0 14 2 19 5 13 2 -7 2 -19 0 -25z m-12 -138 c-4 -61 -10 -109 -12
-106 -3 3 -2 55 2 116 4 61 10 109 12 106 3 -3 2 -55 -2 -116z m-89 -308 c14
-57 24 -108 21 -115 -3 -11 -61 198 -71 263 l-6 35 16 -40 c8 -22 26 -86 40
-143z m199 -408 c4 -32 3 -44 -3 -34 -6 8 -13 40 -16 70 -8 69 9 36 19 -36z
m170 0 c-3 -30 -11 -52 -16 -49 -5 4 -9 1 -9 -6 0 -7 -3 -10 -6 -6 -3 3 2 38
13 78 20 78 29 69 18 -17z m-46 -133 c-10 -47 -29 -71 -29 -36 0 19 31 97 36
92 3 -2 -1 -27 -7 -56z m870 19 c57 -29 78 -87 62 -172 -23 -116 -144 -330
-289 -508 -60 -74 -312 -329 -312 -316 0 17 32 66 55 84 14 11 25 23 25 27 0
4 18 29 41 56 22 27 38 49 34 49 -3 0 -18 -13 -32 -30 -30 -36 -50 -40 -27 -5
9 14 14 25 11 25 -2 0 -28 -36 -57 -80 -29 -44 -54 -80 -55 -80 -1 0 4 28 12
63 22 99 79 207 233 437 108 162 163 235 226 298 46 45 80 82 77 82 -3 0 -25
-11 -48 -25 -23 -13 -45 -22 -49 -20 -3 3 -4 2 -2 -1 3 -3 -17 -32 -43 -64
-26 -31 -70 -93 -96 -136 -73 -120 -217 -348 -227 -359 -15 -17 21 76 62 160
57 118 129 224 217 317 69 73 71 76 20 31 -181 -163 -327 -444 -399 -767 -14
-60 -28 -104 -32 -97 -4 6 -12 57 -18 112 -10 104 2 332 21 394 l9 30 2 -30
c1 -16 12 20 25 81 18 85 33 129 67 188 129 233 329 337 487 256z m-1609 -77
c0 -27 53 -119 120 -208 113 -148 126 -158 37 -25 -96 143 -110 167 -73 125
27 -30 27 -30 -4 29 -32 62 -37 86 -19 86 20 0 132 -31 193 -52 169 -61 257
-169 351 -430 25 -69 68 -248 61 -255 -2 -2 -23 30 -46 72 -24 41 -45 73 -47
71 -2 -2 21 -47 52 -101 30 -54 55 -99 55 -101 0 -2 -39 30 -87 71 -48 41 -92
75 -98 75 -5 0 6 -15 26 -33 20 -17 68 -60 107 -94 54 -48 74 -73 86 -110 9
-26 12 -43 7 -38 -4 6 -35 42 -67 80 -60 72 -69 82 -170 175 -32 30 -77 75
-98 100 -34 39 -35 40 -11 6 l28 -39 -73 52 c-41 28 -80 49 -87 47 -7 -3 -15
0 -19 6 -4 7 -3 8 4 4 7 -4 12 -5 12 -2 0 3 -16 13 -35 22 -51 24 -130 117
-170 199 -36 74 -57 143 -35 115 10 -13 11 -12 5 5 -17 53 -35 132 -35 158 0
25 2 28 15 17 8 -7 15 -19 15 -27z m804 12 c-9 -14 -18 -25 -21 -25 -5 0 5 18
20 38 17 22 18 13 1 -13z m466 22 c0 -2 -19 -21 -42 -42 l-43 -40 40 43 c36
39 45 47 45 39z m-549 -98 c-18 -40 -20 -41 -20 -16 -1 15 3 27 8 27 5 0 11
10 14 22 4 12 9 20 12 17 3 -4 -3 -26 -14 -50z m-54 -216 c-2 -16 -4 -3 -4 27
0 30 2 43 4 28 2 -16 2 -40 0 -55z m47 -201 c26 -164 54 -281 91 -372 19 -46
32 -86 31 -88 -7 -7 -96 179 -126 263 -22 63 -30 101 -26 125 4 24 3 29 -3 15
-15 -38 -20 45 -8 145 10 83 13 90 18 55 4 -22 14 -86 23 -143z m23 -367 c-4
-10 -47 112 -46 129 0 6 11 -18 24 -54 14 -36 23 -69 22 -75z m89 -212 c-6 -6
-76 141 -75 158 0 8 18 -24 40 -70 21 -46 37 -86 35 -88z"/>
<path d="M2147 3020 c-9 -24 -15 -45 -12 -48 6 -6 36 70 32 81 -1 5 -11 -10
-20 -33z"/>
<path d="M2161 2985 c-14 -32 -29 -55 -38 -55 -10 0 -13 -6 -9 -16 3 -8 2 -23
-4 -33 -7 -15 -4 -20 16 -30 14 -6 23 -7 19 -1 -3 5 4 28 15 50 12 23 18 49
15 59 -3 10 -1 31 5 46 20 52 4 35 -19 -20z m-15 -82 c-14 -26 -25 -45 -26
-41 0 12 43 98 48 94 2 -2 -8 -26 -22 -53z"/>
<path d="M2072 2160 c0 -14 2 -19 5 -12 2 6 2 18 0 25 -3 6 -5 1 -5 -13z"/>
<path d="M2601 1434 c0 -11 3 -14 6 -6 3 7 2 16 -1 19 -3 4 -6 -2 -5 -13z"/>
<path d="M2601 1394 c0 -11 3 -14 6 -6 3 7 2 16 -1 19 -3 4 -6 -2 -5 -13z"/>
<path d="M2730 1190 c-6 -11 -8 -20 -6 -20 3 0 10 9 16 20 6 11 8 20 6 20 -3
0 -10 -9 -16 -20z"/>
<path d="M1800 1734 c0 -13 43 -124 46 -121 5 4 -36 127 -42 127 -2 0 -4 -3
-4 -6z"/>
<path d="M1856 1698 c4 -13 13 -39 20 -58 l14 -35 -6 35 c-8 43 -21 80 -29 80
-4 0 -3 -10 1 -22z"/>
<path d="M1936 1677 c3 -10 9 -15 12 -12 3 3 0 11 -7 18 -10 9 -11 8 -5 -6z"/>
<path d="M1957 1615 c3 -22 7 -42 9 -44 8 -9 2 45 -6 64 -7 14 -8 8 -3 -20z"/>
<path d="M1985 1630 c3 -14 9 -43 15 -65 l10 -40 -5 48 c-3 27 -9 56 -15 65
-8 14 -9 12 -5 -8z"/>
<path d="M2017 1590 c3 -14 13 -68 23 -120 10 -52 22 -128 26 -167 3 -40 10
-73 13 -73 8 0 4 43 -15 167 -7 50 -11 99 -8 107 3 9 1 16 -5 16 -7 0 -9 10
-5 28 4 22 3 24 -6 12 -10 -12 -11 -11 -7 8 3 12 1 22 -3 22 -5 0 -10 6 -13
13 -2 6 -2 1 0 -13z"/>
<path d="M1900 1565 c0 -5 5 -17 10 -25 5 -8 10 -10 10 -5 0 6 -5 17 -10 25
-5 8 -10 11 -10 5z"/>
<path d="M2012 1495 c0 -16 2 -22 5 -12 2 9 2 23 0 30 -3 6 -5 -1 -5 -18z"/>
<path d="M1810 1456 c0 -2 8 -10 18 -17 15 -13 16 -12 3 4 -13 16 -21 21 -21
13z"/>
<path d="M2022 1415 c0 -22 3 -60 7 -85 l8 -45 1 40 c0 22 -3 60 -7 85 l-8 45
-1 -40z"/>
<path d="M2212 1390 c0 -14 2 -19 5 -12 2 6 2 18 0 25 -3 6 -5 1 -5 -13z"/>
<path d="M2912 3423 c-7 -2 -37 -38 -68 -79 -56 -74 -68 -87 -58 -59 4 8 4 15
1 15 -6 0 -67 -103 -67 -112 0 -6 423 125 485 150 68 28 46 27 -45 -2 -41 -14
-136 -43 -210 -65 -74 -22 -144 -42 -155 -46 -17 -6 -16 -3 5 15 58 49 130
124 125 128 -3 3 -26 -14 -52 -39 -48 -46 -48 -42 -1 29 16 23 35 42 42 42 8
0 16 7 20 15 6 15 1 17 -22 8z"/>
<path d="M2905 3298 l-40 -43 43 40 c39 36 47 45 39 45 -2 0 -21 -19 -42 -42z"/>
<path d="M2715 2766 c-22 -7 -54 -20 -71 -29 -82 -43 -215 -197 -228 -266 -6
-36 -22 -61 -38 -61 -5 0 -4 9 2 19 5 11 10 30 10 42 0 36 -23 6 -25 -33 -3
-33 -5 -40 -31 -113 -8 -22 -10 -41 -5 -43 5 -2 5 -18 0 -40 -12 -52 -12 -54
14 -41 33 18 37 28 37 99 0 54 5 74 30 118 17 28 33 52 36 52 4 0 3 -30 -1
-67 -4 -38 -4 -65 -1 -62 4 4 9 41 12 84 4 67 8 83 40 130 75 113 202 207 278
204 19 0 18 -1 -4 -11 -123 -54 -203 -102 -139 -84 93 26 137 36 159 36 36 0
121 -26 145 -44 18 -13 16 -13 -20 -1 -22 8 -53 14 -70 14 -20 -1 -8 -6 33
-16 76 -18 97 -42 89 -105 -4 -33 -17 -52 -64 -100 -31 -32 -89 -80 -128 -107
-38 -26 -71 -55 -73 -64 -5 -27 11 -20 60 26 52 48 161 127 175 127 13 0 53
44 53 59 0 6 18 38 41 70 67 95 64 172 -6 206 -39 18 -91 20 -101 3 -5 -8 -2
-9 10 -5 24 9 101 -26 115 -51 16 -30 14 -50 -10 -99 -24 -51 -35 -54 -44 -14
-8 38 -73 97 -122 110 -21 6 -58 11 -83 12 -41 0 -43 1 -20 11 21 8 73 16 128
18 6 0 12 4 12 9 0 4 -12 6 -27 4 -22 -4 -25 -2 -13 6 22 16 -104 13 -155 -3z"/>
<path d="M2416 2567 c-27 -35 -34 -61 -16 -55 15 5 63 88 51 88 -5 0 -21 -15
-35 -33z"/>
<path d="M2720 2470 c-52 -76 -74 -98 -50 -48 l11 23 -20 -24 c-23 -25 -28
-47 -9 -35 7 4 8 3 4 -5 -4 -6 -11 -9 -16 -6 -13 8 -24 -15 -12 -27 6 -6 34
24 81 87 62 85 80 115 68 115 -2 0 -28 -36 -57 -80z"/>
<path d="M2303 2498 c-6 -7 -14 -33 -19 -58 -7 -43 -8 -44 -14 -15 -4 21 -10
-6 -18 -86 -15 -139 -15 -139 -2 -139 6 0 10 11 10 24 0 14 14 82 30 152 17
70 29 129 27 131 -2 2 -9 -2 -14 -9z"/>
<path d="M2776 2414 c-77 -56 -91 -74 -58 -74 20 0 150 114 141 124 -3 4 -40
-19 -83 -50z"/>
<path d="M2227 2393 c-22 -57 -29 -100 -21 -125 6 -18 12 -2 26 66 10 49 16
91 14 93 -2 2 -10 -13 -19 -34z"/>
<path d="M2548 2353 c-1 -27 -3 -68 -4 -93 -2 -41 -1 -43 13 -25 8 11 19 29
25 40 11 19 10 19 -9 2 -20 -18 -20 -17 -15 53 2 38 2 70 -2 70 -3 0 -7 -21
-8 -47z"/>
<path d="M2432 2260 c0 -14 2 -19 5 -12 2 6 2 18 0 25 -3 6 -5 1 -5 -13z"/>
</g>
</svg>
